Coordinates
version=1
nRows=4
nColumns=107
inDegrees=yes

Units are S.I. units (second, meters, Newtons, ...)
If the header above contains a line with 'inDegrees', this indicates whether rotational values are in degrees (yes) or radians (no).

endheader
time	sternoclavicular_r2	sternoclavicular_r3	unrotscap_r3	unrotscap_r2	acromioclavicular_r2	acromioclavicular_r3	acromioclavicular_r1	unrothum_r1	unrothum_r3	unrothum_r2	elv_angle	shoulder_elv	shoulder1_r2	shoulder_rot	elbow_flexion	pro_sup	deviation	flexion	proximal_distal_r1	proximal_distal_r3	cmc_flexion	cmc_abduction	mp_flexion	ip_flexion	mcp2_flexion	mcp2_abduction	pm2_flexion	md2_flexion	mcp3_flexion	mcp3_abduction	pm3_flexion	md3_flexion	mcp4_flexion	mcp4_abduction	pm4_flexion	md4_flexion	mcp5_flexion	mcp5_abduction	pm5_flexion	md5_flexion	bicpt_tx	bicpt_ty	bicpt_tz	bicpt2_tx	bicpt2_ty	bicpt2_tz	ptpt_tx	ptpt_ty	ptpt_tz	FCUpt_tx	FCUpt_ty	FCUpt_tz	EDCpt_tx	EDCpt_ty	EDCpt_tz	APLpt_tx	APLpt_ty	APLpt_tz	FPLpt_tx	FPLpt_ty	FPLpt_tz	FPLpt2_tx	FPLpt2_ty	FPLpt2_tz	PEC1pt2_tx	PEC1pt2_ty	PEC1pt2_tz	PEC1pt3_tx	PEC1pt3_ty	PEC1pt3_tz	PEC2pt2_tx	PEC2pt2_ty	PEC2pt2_tz	PEC2pt3_tx	PEC2pt3_ty	PEC2pt3_tz	PEC3pt2_tx	PEC3pt2_ty	PEC3pt2_tz	PEC3pt3_tx	PEC3pt3_ty	PEC3pt3_tz	DELT2pt2a_tx	DELT2pt2a_ty	DELT2pt2a_tz	DELT2pt2_tx	DELT2pt2_ty	DELT2pt2_tz	LAT1pt2_tx	LAT1pt2_ty	LAT1pt2_tz	LAT1pt3_tx	LAT1pt3_ty	LAT1pt3_tz	LAT2pt2_tx	LAT2pt2_ty	LAT2pt2_tz	LAT2pt3_tx	LAT2pt3_ty	LAT2pt3_tz	LAT3pt2_tx	LAT3pt2_ty	LAT3pt2_tz	LAT3pt3_tx	LAT3pt3_ty	LAT3pt3_tz
      0.83333333	     -0.32570313	      0.13795247	     -0.13795247	      0.32570313	     -0.06594826	      0.53297063	      0.23956663	     -0.23956663	     -0.53297063	      0.06594826	     98.96388719	     77.11311180	     -1.72724567	    -20.60047278	     28.35994602	     36.64963634	      0.21955609	      0.08046408	      0.25851257	      0.04023204	     32.72505340	      1.90491419	      0.18140797	      8.18012372	    -16.81698946	     11.69581266	     15.22056211	    -25.98207837	    -25.45075822	      3.14112421	     10.08666413	     12.65474103	    -22.36194943	     -0.69175092	     -8.79284103	     20.34920660	    -31.26764063	    -14.08153795	     -8.12788049	      5.05725061	      0.00083806	     -0.03085048	     -0.00482357	      0.01655531	     -0.01790412	     -0.00781982	      0.00484201	     -0.06665103	     -0.00300232	      0.00744466	     -0.18356317	     -0.00035841	     -0.00439795	      0.00124569	      0.00016743	     -0.00008775	     -0.00003510	     -0.00017550	     -0.00011232	     -0.00033695	     -0.00018954	     -0.00001151	     -0.00022317	     -0.00026780	      0.00252760	      0.00886802	      0.00616905	     -0.00826825	      0.01996374	     -0.01893557	      0.00252760	      0.00886802	      0.00616905	      0.00055693	      0.01850716	     -0.00972483	      0.00398359	      0.00493139	      0.01605413	      0.00000000	      0.00795394	      0.00000000	     -0.00724007	     -0.03345855	     -0.00655935	      0.01412036	     -0.00045045	     -0.00350945	     -0.00089965	      0.01507991	     -0.00616905	      0.00248476	      0.02176305	     -0.01799307	     -0.00604053	      0.01306640	     -0.00552644	     -0.01259515	      0.02758938	     -0.03088811	     -0.02364804	      0.01460866	     -0.00741143	     -0.01567968	      0.03187345	     -0.03859943
      0.86666667	     -0.32259066	      0.13663418	     -0.13663418	      0.32259066	     -0.06531805	      0.52787748	      0.23727729	     -0.23727729	     -0.52787748	      0.06531805	     99.52605595	     76.37620684	     -1.73705737	    -24.11973119	     28.78860778	     40.77847852	      0.21620633	      0.02099938	      0.25516118	      0.01049969	     31.68082794	     -0.88803887	     -0.49113095	      4.81346197	    -14.27823657	     11.00197070	     19.31916241	    -24.79483817	    -20.37811574	      2.22226741	     10.56005927	     14.22452094	    -18.05421380	     -0.80304066	     -7.76998042	     22.76569793	    -26.90018320	    -14.06675223	     -5.75221100	      4.97473053	      0.00085224	     -0.03089961	     -0.00483148	      0.01657517	     -0.01802057	     -0.00738650	      0.00453693	     -0.06684830	     -0.00333493	      0.00785871	     -0.18347878	     -0.00039172	     -0.00489341	      0.00141200	      0.00014067	     -0.00002184	     -0.00000874	     -0.00004369	     -0.00002796	     -0.00008388	     -0.00004718	     -0.00001056	     -0.00023443	     -0.00028132	      0.00250344	      0.00878327	      0.00611010	     -0.00818923	      0.01977297	     -0.01875462	      0.00250344	      0.00878327	      0.00611010	      0.00055161	      0.01833031	     -0.00963190	      0.00395585	      0.00488427	      0.01598695	      0.00000000	      0.00780157	      0.00000000	     -0.00717088	     -0.03313882	     -0.00643288	      0.01604006	     -0.00056171	     -0.00485813	     -0.00089106	      0.01493580	     -0.00611010	      0.00246101	      0.02155508	     -0.01782113	     -0.00598281	      0.01294153	     -0.00547363	     -0.01247479	      0.02732573	     -0.03059294	     -0.02342206	      0.01446906	     -0.00734061	     -0.01552984	      0.03156886	     -0.03823057
      0.90000000	     -0.32208340	      0.13641933	     -0.13641933	      0.32208340	     -0.06521534	      0.52704741	      0.23690419	     -0.23690419	     -0.52704741	      0.06521534	     99.47313014	     76.25610825	     -1.73613364	    -24.46428493	     29.20998219	     42.53389401	      0.23652963	     -0.02319998	      0.27521195	     -0.01159999	     31.72390845	     -3.45453481	     -5.10828163	      5.32590376	    -10.43725172	     10.05792764	     21.44679335	    -21.10077930	    -14.85789327	      1.09965900	     12.06211545	     14.04543906	    -11.86519451	     -1.34117942	     -7.57880909	     20.67437578	    -19.88185439	    -14.01781990	     -6.67563423	      5.05032425	      0.00086618	     -0.03094791	     -0.00483926	      0.01657180	     -0.01813503	     -0.00719504	      0.00440723	     -0.06693217	     -0.00347633	      0.00803634	     -0.18344144	     -0.00040199	     -0.00510406	      0.00148431	      0.00012649	      0.00002330	      0.00000932	      0.00004660	      0.00002982	      0.00008946	      0.00005032	     -0.00001061	     -0.00023404	     -0.00028085	      0.00249951	      0.00876946	      0.00610049	     -0.00817636	      0.01974188	     -0.01872513	      0.00249951	      0.00876946	      0.00610049	      0.00055074	      0.01830148	     -0.00961675	      0.00395131	      0.00487659	      0.01597588	      0.00000000	      0.00777689	      0.00000000	     -0.00715961	     -0.03308671	     -0.00641238	      0.01621910	     -0.00057285	     -0.00499995	     -0.00088966	      0.01491232	     -0.00610049	      0.00245714	      0.02152119	     -0.01779311	     -0.00597340	      0.01292118	     -0.00546503	     -0.01245517	      0.02728276	     -0.03054483	     -0.02338523	      0.01444631	     -0.00732907	     -0.01550542	      0.03151922	     -0.03817045
      0.93333333	     -0.32193526	      0.13635658	     -0.13635658	      0.32193526	     -0.06518534	      0.52680500	      0.23679522	     -0.23679522	     -0.52680500	      0.06518534	     99.33873621	     76.22103394	     -1.73378802	    -24.39571276	     29.58966448	     44.11036397	      0.25891091	     -0.05966410	      0.29651006	     -0.02983205	     30.33936701	     -6.96878211	     -6.96413792	      5.48552378	     -7.56914812	      9.17535424	     25.22640666	    -18.82519960	    -10.40654739	      0.28461954	     15.11615662	     15.29997683	     -7.34587181	     -1.85651218	     -4.72859038	     21.26654999	    -14.33737868	    -14.00961688	     -4.00025468	      5.04496709	      0.00087873	     -0.03099143	     -0.00484627	      0.01656276	     -0.01823818	     -0.00701940	      0.00429074	     -0.06700749	     -0.00360333	      0.00819667	     -0.18340716	     -0.00040924	     -0.00529323	      0.00155006	      0.00011233	      0.00005806	      0.00002323	      0.00011613	      0.00007432	      0.00022297	      0.00012542	     -0.00000900	     -0.00024711	     -0.00029653	      0.00249836	      0.00876543	      0.00609769	     -0.00817260	      0.01973280	     -0.01871651	      0.00249836	      0.00876543	      0.00609769	      0.00055049	      0.01829306	     -0.00961233	      0.00394999	      0.00487434	      0.01597264	      0.00000000	      0.00776968	      0.00000000	     -0.00715631	     -0.03307149	     -0.00640640	      0.01618359	     -0.00057063	     -0.00497159	     -0.00088925	      0.01490546	     -0.00609769	      0.00245601	      0.02151129	     -0.01778492	     -0.00597065	      0.01291524	     -0.00546251	     -0.01244945	      0.02727022	     -0.03053078	     -0.02337447	      0.01443966	     -0.00732569	     -0.01549829	      0.03150472	     -0.03815289
